<?xml version="1.0" encoding="utf-8"?>
<!-- Generator: Adobe Illustrator 23.1.0, SVG Export Plug-In . SVG Version: 6.00 Build 0)  -->
<svg version="1.1" id="Capa_1" xmlns="http://www.w3.org/2000/svg" xmlns:xlink="http://www.w3.org/1999/xlink" x="0px" y="0px"
	 viewBox="0 0 292.7 292.7" enable-background="new 0 0 292.7 292.7" xml:space="preserve">
<path stroke="#000000" stroke-width="7.2313" stroke-miterlimit="10" d="M266.9,272.4H26.4c-3.1,0-5.7-2.6-5.7-5.7V26.3
	c0-3.1,2.6-5.7,5.7-5.7h240.5c3.1,0,5.7,2.6,5.7,5.7v240.5C272.6,269.9,270,272.4,266.9,272.4z"/>
<path fill="#FFFFFF" d="M116.6,183.3c-33.2,0-60.1-26.9-60.1-60.1s26.9-60.1,60.1-60.1s60.1,26.9,60.1,60.1S149.8,183.3,116.6,183.3
	z M116.6,75.2c-26.5,0-48,21.5-48,48s21.5,48,48,48s48-21.5,48-48S143.2,75.2,116.6,75.2z"/>
<path fill="#FFFFFF" d="M170.7,177.3c-1.4,0-2.8-0.5-3.8-1.4l-14.2-11.7c-2.6-2.1-2.9-5.9-0.8-8.5c2.1-2.6,5.9-2.9,8.5-0.8l0,0
	l14.1,11.7c2.6,2.1,2.9,5.9,0.8,8.5c0,0,0,0,0,0C174.1,176.5,172.4,177.3,170.7,177.3z"/>
<path fill="#FFFFFF" d="M218.7,229.8c-4.2,0-8.3-1.5-11.6-4.2l-36.8-30.9c-7.6-6.4-8.6-17.8-2.2-25.4c6.4-7.6,17.8-8.6,25.4-2.2
	l36.8,30.9c7.6,6.4,8.6,17.8,2.2,25.4C229.1,227.4,224.1,229.8,218.7,229.8z M181.9,174.9h-0.5c-3.3,0.3-5.8,3.2-5.5,6.5
	c0.1,1.6,0.9,3.1,2.2,4.1l36.8,30.9c2.5,2.1,6.3,1.8,8.5-0.7c0,0,0,0,0,0c1-1.2,1.5-2.8,1.4-4.4c-0.1-1.6-0.9-3.1-2.2-4.1
	l-36.8-30.9C184.7,175.4,183.3,174.9,181.9,174.9z"/>
</svg>
